<svg width="12" height="13" viewBox="0 0 12 13" fill="none" xmlns="http://www.w3.org/2000/svg">
<path d="M5.99275 0.32819C5.85149 0.330398 5.71687 0.388564 5.61844 0.48992C5.52001 0.591277 5.46582 0.727544 5.46775 0.868815V1.13548H2.53442C2.46377 1.13452 2.39364 1.14761 2.32809 1.17398C2.26254 1.20035 2.20289 1.23949 2.15259 1.28911C2.10229 1.33873 2.06235 1.39784 2.03509 1.46303C2.00783 1.52821 1.99379 1.59816 1.99379 1.66882H1.20109C1.13041 1.66782 1.06025 1.68087 0.994663 1.70723C0.92908 1.73358 0.869388 1.77271 0.819058 1.82233C0.768727 1.87195 0.728761 1.93109 0.701483 1.99629C0.674204 2.06149 0.660156 2.13147 0.660156 2.20215C0.660156 2.27283 0.674204 2.3428 0.701483 2.40801C0.728761 2.47321 0.768727 2.53234 0.819058 2.58197C0.869388 2.63159 0.92908 2.67072 0.994663 2.69707C1.06025 2.72342 1.13041 2.73648 1.20109 2.73548H10.8011C10.8718 2.73648 10.9419 2.72342 11.0075 2.69707C11.0731 2.67072 11.1328 2.63159 11.1831 2.58197C11.2334 2.53234 11.2734 2.47321 11.3007 2.40801C11.328 2.3428 11.342 2.27283 11.342 2.20215C11.342 2.13147 11.328 2.06149 11.3007 1.99629C11.2734 1.93109 11.2334 1.87195 11.1831 1.82233C11.1328 1.77271 11.0731 1.73358 11.0075 1.70723C10.9419 1.68087 10.8718 1.66782 10.8011 1.66882H10.0084C10.0084 1.59816 9.99434 1.52821 9.96708 1.46303C9.93982 1.39784 9.89988 1.33873 9.84958 1.28911C9.79928 1.23949 9.73963 1.20035 9.67408 1.17398C9.60853 1.14761 9.5384 1.13452 9.46775 1.13548H6.53442V0.868815C6.5354 0.797461 6.52205 0.726636 6.49516 0.660534C6.46827 0.594433 6.42839 0.534399 6.37788 0.483988C6.32737 0.433576 6.26726 0.393813 6.20111 0.367051C6.13496 0.34029 6.0641 0.327076 5.99275 0.32819ZM1.20109 3.80215L2.15734 11.9271C2.22027 12.4642 2.67487 12.8688 3.21567 12.8688H8.7865C9.3273 12.8688 9.78137 12.4642 9.84484 11.9271L10.8011 3.80215H1.20109Z" fill="#4A5056"/>
</svg>
