<svg width="13" height="17" viewBox="0 0 13 17" fill="none" xmlns="http://www.w3.org/2000/svg">
<path d="M1.74935 0.585938C0.876141 0.585938 0.166016 1.29606 0.166016 2.16927V14.8359C0.166016 15.7091 0.876141 16.4193 1.74935 16.4193H11.2493C12.1226 16.4193 12.8327 15.7091 12.8327 14.8359V2.16927C12.8327 1.29606 12.1226 0.585938 11.2493 0.585938H1.74935ZM6.49935 2.96094C8.68514 2.96094 10.4577 4.73348 10.4577 6.91927C10.4577 9.10506 8.68514 10.8776 6.49935 10.8776C5.79578 10.8776 5.14536 10.6785 4.57275 10.3565L5.67367 8.15161C5.79004 7.91965 5.58061 7.65688 5.32886 7.72021L2.7946 8.27376C2.63916 7.84937 2.54102 7.39745 2.54102 6.91927C2.54102 4.73348 4.31356 2.96094 6.49935 2.96094ZM6.49935 6.1276C6.28939 6.1276 6.08802 6.21101 5.93956 6.35948C5.79109 6.50794 5.70768 6.70931 5.70768 6.91927C5.70768 7.12923 5.79109 7.3306 5.93956 7.47906C6.08802 7.62753 6.28939 7.71094 6.49935 7.71094C6.70931 7.71094 6.91068 7.62753 7.05914 7.47906C7.20761 7.3306 7.29102 7.12923 7.29102 6.91927C7.29102 6.70931 7.20761 6.50794 7.05914 6.35948C6.91068 6.21101 6.70931 6.1276 6.49935 6.1276Z" fill="#2B4EBE"/>
</svg>
